<?xml version="1.0" standalone="no"?><!DOCTYPE svg PUBLIC "-//W3C//DTD SVG 1.1//EN" "http://www.w3.org/Graphics/SVG/1.1/DTD/svg11.dtd"><svg t="1673359117097" class="icon" viewBox="0 0 1024 1024" version="1.1" xmlns="http://www.w3.org/2000/svg" p-id="2149" data-spm-anchor-id="a313x.7781069.0.i15" width="80" height="80" xmlns:xlink="http://www.w3.org/1999/xlink"><path d="M401.488921 439.302993L284.137522 304.093034c-5.102018-5.102018-22.960578-7.653526-30.613104 2.551508l-33.164613 33.164613c-10.205034 10.204035-22.960578 10.204035-33.164613 0l-66.329225-66.329225c-10.205034-10.205034-10.205034-22.960578 0-33.164613l33.164613-35.716121c30.613104-30.613104 71.431243-48.471664 114.79989-48.471664 43.369647 0 84.187785 17.85856 114.80089 48.471664l51.022174 51.022174c5.103017 5.103017 7.653526 10.205034 7.653526 15.307051v150.516012c0 10.205034-5.102018 17.85856-15.306053 22.960578-7.653526 2.550509-17.85856 0-25.512086-5.102018z" fill="#dbeafe" p-id="2150" data-spm-anchor-id="a313x.7781069.0.i11" class=""></path><path d="M886.203567 658.69774a22.864671 22.864671 0 0 1-22.960578-22.960577c0-53.572683-73.982751-71.431243-73.982751-71.431243l-7.653526-2.550509c-7.652527-2.551508-15.306053-7.653526-17.857561-15.307052-7.653526-17.857561-17.857561-33.164613-30.613104-45.920156-5.102018-5.102018-7.653526-10.205034-7.653526-17.857561v-12.756542c0-51.022174 40.818139-94.390821 94.39182-94.390822s94.390821 40.81714 94.390822 94.390822v163.272554c-5.102018 15.307052-15.306053 25.511087-28.061596 25.511086z" fill="#bfdbfe" p-id="2151" data-spm-anchor-id="a313x.7781069.0.i17" class=""></path><path d="M817.322833 589.819005v224.498763c-30.613104 15.306053-76.53326 30.613104-140.311976 40.818138-2.550509-5.103017 0-28.062595 0-33.164612 0-63.778716-51.022174-117.352398-117.351399-117.352398h-22.960578l-22.959579-33.164613-22.960577 33.164613h-43.368648c-51.022174 0-94.39182 30.614103-109.698872 79.084768-2.550509 7.653526-17.857561 56.12519-20.409069 63.778716-63.777717-12.755543-107.146365-33.164613-132.658451-48.471664l7.653526-20.409069 15.307051-45.920156c35.716121-104.595856 76.53326-219.396745 51.022174-303.583532-12.755543 12.755543-20.409069 22.959579-20.409069 22.959579-25.511087 25.512086-73.982751 25.512086-99.493838 0-28.061596-28.061596-28.061596-71.431243 0-99.493838l35.716121-33.164613 48.471664-48.470666c25.511087-25.512086 71.431243-25.512086 99.493838 0l122.453417 142.862486 10.205034 12.755544h2.550509l58.676699 56.12519 68.879734-56.12519h68.880734c40.818139 0 79.084769 15.307052 109.697873 40.818138 17.85856 17.857561 35.716121 40.818139 43.369647 63.777717 5.102018 20.409069 10.204035 38.267629 10.204035 58.676699z" fill="#93c5fd" p-id="2152" data-spm-anchor-id="a313x.7781069.0.i13" class="selected"></path><path d="M513.739301 674.005791l22.959579 33.164613h22.960578c63.777717 0 117.351399 51.022174 117.351399 117.351399v33.164613c63.778716-10.204035 109.698872-25.511087 140.311976-40.818139V592.369514c0-17.857561-2.551508-38.26663-10.204035-56.124191-10.205034-25.512086-25.512086-48.471664-43.369647-63.778716-30.613104-28.062595-68.880734-40.818139-109.697873-40.818139h-68.880734l-68.880733 56.125191-2.55051-2.551509v188.783641z" fill="#60a5fa" p-id="2153" data-spm-anchor-id="a313x.7781069.0.i14" class=""></path><path d="M513.738302 893.402537c-285.725971 0-387.770318-96.943329-392.872335-102.045347-10.205034-10.204035-10.205034-22.959579 0-33.164612 10.204035-10.204035 22.959579-10.204035 33.164613 0 2.550509 2.551508 96.94233 86.738295 359.707722 86.738294 262.766392 0 354.606704-86.738295 357.158213-86.738294 10.204035-7.653526 22.959579-7.653526 33.164613 0 10.204035 10.205034 10.204035 22.960578 0 33.164612-5.102018 5.102018-104.596855 102.045346-390.322826 102.045347z" fill="#F7DA89" p-id="2154"></path><path d="M513.739301 893.405534c285.725971 0 385.219809-96.943329 390.321827-99.494837 10.204035-10.204035 10.204035-22.959579 0-33.164613-10.205034-10.204035-22.960578-10.204035-33.164613 0 0 0-91.840312 86.738295-357.157214 86.738295v45.921155z" fill="#FFCC66" p-id="2155" data-spm-anchor-id="a313x.7781069.0.i18" class=""></path><path d="M513.739301 566.857428a22.864671 22.864671 0 0 0-22.959578 22.960578V707.169405h45.920156V589.818006a22.86567 22.86567 0 0 0-22.960578-22.960578z" fill="#FBF585" p-id="2156"></path><path d="M513.739301 707.169405h22.959579V589.818006a22.864671 22.864671 0 0 0-22.959579-22.960578V707.169405z" fill="#FFCC66" p-id="2157"></path><path d="M470.369655 426.544453c-10.204035 0-20.409069-5.102018-28.062595-12.755544V566.856429a22.86567 22.86567 0 0 0 22.960577 22.960578h94.391821a22.864671 22.864671 0 0 0 22.959578-22.960578V426.544453H470.369655z" fill="#FBF585" p-id="2158"></path><path d="M513.739301 589.817007h45.920157a22.863672 22.863672 0 0 0 22.959578-22.959579V426.545452h-68.879735v163.271555z" fill="#FFCC66" p-id="2159"></path></svg>